<svg version="1.0" xmlns="http://www.w3.org/2000/svg" width="50.667" height="50.667" viewBox="0 0 172 172"><g fill="#ddd"><path d="M23 36.1c0 1.8 1.1 3 4.4 4.8 8 4.2 8.1 4.5 8.1 44.1 0 40-.1 40.4-7.9 43.6-3.6 1.5-4.6 2.4-4.6 4.3 0 2.3.2 2.4 6.1 1.7 3.4-.3 8.8-.6 12-.6H47V35h-8.2c-4.6 0-10-.3-12-.6-3.5-.6-3.8-.5-3.8 1.7zm38.8-1.4l-11.8.4v98.7l15.4.7c18.1.9 23.5.3 31.3-3.4 6.8-3.3 16.8-13 20.7-20.2 7.5-13.6 7.5-38.4.1-53.6-7.1-14.5-23.4-24-39.9-23.1-2.3.1-9.4.4-15.8.5zm28.7 11.9c6.8 2.4 14.4 10.1 17.6 17.9 2.2 5.4 2.4 7.5 2.4 21 0 14.1-.2 15.3-2.6 20.6-3.6 7.6-8.9 13.2-15.2 16-4.5 2.1-6.8 2.4-16.4 2.4-7.1 0-11.6-.4-12.3-1.1-2.2-2.2-3.1-17.5-2.8-46.3.2-20.8.6-29.3 1.5-30.2 3.2-3.2 18.8-3.3 27.8-.3z"/><path d="M117 49.2c7.5 10.4 11 33.7 7.6 50.8-2.1 10-5.6 17.8-10.5 23.3l-3.6 4.1 3.4-2c7.5-4.3 16-13.3 19.8-21.2 3.7-7.5 3.8-7.8 3.8-19.1-.1-12.9-1.8-19.1-7.5-27-2.8-3.8-13.6-13.1-15.3-13.1-.4 0 .6 1.9 2.3 4.2z"/></g></svg>